
<svg width="18" height="18" viewBox="0 0 18 18" fill="none" xmlns="http://www.w3.org/2000/svg">
<path fill-rule="evenodd" clip-rule="evenodd" d="M6.75 6C6.75 3.51472 8.76472 1.5 11.25 1.5H13.5C13.9142 1.5 14.25 1.83579 14.25 2.25V5.25C14.25 5.66421 13.9142 6 13.5 6H11.25V6.75H13.5C13.731 6.75 13.949 6.8564 14.0912 7.03844C14.2333 7.22048 14.2836 7.45785 14.2276 7.6819L13.4776 10.6819C13.3941 11.0158 13.0942 11.25 12.75 11.25H11.25V15.75C11.25 16.1642 10.9142 16.5 10.5 16.5H7.5C7.08579 16.5 6.75 16.1642 6.75 15.75V11.25H5.25C4.83579 11.25 4.5 10.9142 4.5 10.5V7.5C4.5 7.08579 4.83579 6.75 5.25 6.75H6.75V6ZM6 8.25V9.75H7.5C7.91421 9.75 8.25 10.0858 8.25 10.5V15H9.75V10.5C9.75 10.0858 10.0858 9.75 10.5 9.75H12.1644L12.5394 8.25H10.5C10.0858 8.25 9.75 7.91421 9.75 7.5V6C9.75 5.17157 10.4216 4.5 11.25 4.5H12.75V3H11.25C9.59315 3 8.25 4.34315 8.25 6V7.5C8.25 7.91421 7.91421 8.25 7.5 8.25H6Z" fill="#171717"/>
</svg>
