<svg width="15" height="15" viewBox="0 0 15 15" fill="none" xmlns="http://www.w3.org/2000/svg">
<path fill-rule="evenodd" clip-rule="evenodd" d="M6.19489 1.97962C3.95049 2.51027 2.19646 4.37943 1.88334 6.7535C1.51164 9.57178 3.28553 12.2293 6.03083 12.967C8.26061 13.5662 10.5707 12.7482 11.9442 11.0133C9.74613 11.2149 7.55079 10.1915 6.31483 8.24926C5.07899 6.30719 5.08163 3.88531 6.19489 1.97962ZM7.58945 0.4168H7.77819C8.06942 0.4168 8.33098 0.595053 8.43747 0.866113C8.54397 1.13717 8.4737 1.44579 8.26036 1.64403C6.63303 3.15614 6.31742 5.61457 7.51002 7.4887C8.70262 9.36283 11.0633 10.1182 13.1224 9.28449C13.3871 9.1773 13.6903 9.2396 13.8914 9.44248C14.0924 9.64537 14.1519 9.94914 14.0423 10.2129C12.6786 13.4942 9.09483 15.2572 5.6632 14.3351C2.23158 13.413 0.0142088 10.0911 0.47884 6.56826C0.943471 3.04541 3.94629 0.41199 7.49965 0.411133C7.52977 0.411126 7.55989 0.413037 7.58945 0.4168Z" fill="#171717"/>
</svg>
